<?xml version="1.0" encoding="UTF-8" standalone="no"?>
<!DOCTYPE svg PUBLIC "-//W3C//DTD SVG 1.1//EN" "http://www.w3.org/Graphics/SVG/1.1/DTD/svg11.dtd">
<svg xmlns:dc="http://purl.org/dc/elements/1.1/" xmlns:xl="http://www.w3.org/1999/xlink" version="1.1" xmlns="http://www.w3.org/2000/svg" viewBox="499.81055 335 576.6035 100" width="576.6035" height="100">
  <defs>
    <marker orient="auto" overflow="visible" markerUnits="strokeWidth" id="FilledArrow_Marker" stroke-linejoin="miter" stroke-miterlimit="10" viewBox="-1 -3 6 6" markerWidth="6" markerHeight="6" color="#62b5e5">
      <g>
        <path d="M 3.84 0 L 0 -1.44 L 0 1.44 Z" fill="currentColor" stroke="currentColor" stroke-width="1"/>
      </g>
    </marker>
  </defs>
  <g id="User_Workflow" fill="none" stroke="none" stroke-opacity="1" fill-opacity="1" stroke-dasharray="none">
    <title>User Workflow</title>
    <rect fill="white" x="499.81055" y="335" width="576.6035" height="100"/>
    <g id="User_Workflow_Layer_1">
      <title>Layer 1</title>
      <g id="Graphic_3">
        <path d="M 503.81055 335 L 655.81055 335 C 658.0197 335 659.81055 336.79086 659.81055 339 L 659.81055 431 C 659.81055 433.20914 658.0197 435 655.81055 435 L 503.81055 435 C 501.6014 435 499.81055 433.20914 499.81055 431 L 499.81055 339 C 499.81055 336.79086 501.6014 335 503.81055 335 Z" fill="#62b5e5" fill-opacity=".3"/>
        <text transform="translate(504.81055 352)" fill="#4b4f54">
          <tspan font-family="Open Sans" font-size="16" fill="#4b4f54" x="52.97656" y="17" xml:space="preserve">Select</tspan>
          <tspan font-family="Open Sans" font-size="16" fill="#4b4f54" x="20.386719" y="39" xml:space="preserve">Cloud Connect </tspan>
          <tspan font-family="Open Sans" font-size="16" fill="#4b4f54" x="29.226562" y="61" xml:space="preserve">Deployment</tspan>
        </text>
      </g>
      <g id="Graphic_4">
        <path d="M 713.81055 335 L 865.8105 335 C 868.0197 335 869.8105 336.79086 869.8105 339 L 869.8105 431 C 869.8105 433.20914 868.0197 435 865.8105 435 L 713.81055 435 C 711.6014 435 709.81055 433.20914 709.81055 431 L 709.81055 339 C 709.81055 336.79086 711.6014 335 713.81055 335 Z" fill="#62b5e5" fill-opacity=".3"/>
        <text transform="translate(714.81055 363)" fill="#4b4f54">
          <tspan font-family="Open Sans" font-size="16" fill="#4b4f54" x="48.890625" y="17" xml:space="preserve">Deploy</tspan>
          <tspan font-family="Open Sans" font-size="16" fill="#4b4f54" x="23.882812" y="39" xml:space="preserve">Research App</tspan>
        </text>
      </g>
      <g id="Graphic_5">
        <path d="M 920.4141 335 L 1072.414 335 C 1074.6232 335 1076.414 336.79086 1076.414 339 L 1076.414 431 C 1076.414 433.20914 1074.6232 435 1072.414 435 L 920.4141 435 C 918.2049 435 916.4141 433.20914 916.4141 431 L 916.4141 339 C 916.4141 336.79086 918.2049 335 920.4141 335 Z" fill="#62b5e5" fill-opacity=".3"/>
        <text transform="translate(921.4141 363)" fill="#4b4f54">
          <tspan font-family="Open Sans" font-size="16" fill="#4b4f54" x="34.445312" y="17" xml:space="preserve">Connect to</tspan>
          <tspan font-family="Open Sans" font-size="16" fill="#4b4f54" x="23.882812" y="39" xml:space="preserve">Research App</tspan>
        </text>
      </g>
      <g id="Line_7">
        <line x1="659.81055" y1="384.5" x2="698.83055" y2="384.5" marker-end="url(#FilledArrow_Marker)" stroke="#62b5e5" stroke-linecap="round" stroke-linejoin="round" stroke-width="2"/>
      </g>
      <g id="Line_8">
        <line x1="869.8105" y1="384.5" x2="908.8305" y2="384.5" marker-end="url(#FilledArrow_Marker)" stroke="#62b5e5" stroke-linecap="round" stroke-linejoin="round" stroke-width="2"/>
      </g>
    </g>
  </g>
</svg>
